<svg xmlns="http://www.w3.org/2000/svg" viewBox="0 0 823.08 502.99"><defs><style>.cls-1{fill:#fff;}</style></defs><g id="Layer_2" data-name="Layer 2"><g id="Layer_1-2" data-name="Layer 1"><path class="cls-1" d="M3.4,348.6c.22,8,3.56,15,7.37,21.29C17.65,381.26,28.25,387,42,384.62c3.36-.57,4.23.41,4.68,3.68,1.14,8.36,2.45,16.73,4.35,24.95,1.4,6.08,1.56,6.18-4.83,6.82-8.11.81-14.85,4.87-18.33,12a62.69,62.69,0,0,0-5.48,39.79c.6,3.25,2.16,6.38,3.62,9.4a31.64,31.64,0,0,0,4.13,6.21c4.27,5.18,10.59,4.11,16.22,4.92C56,493.73,66.81,485,68,475.26c.81-6.9,1.61-13.79,2.43-20.84.1,0,1,.06,1.24.48,2.62,4,5,8.22,7.75,12.12,5,6.93,9.75,14,15.38,20.4,3.76,4.25,8.93,7.22,13.31,11,7,6,19.27,6.07,26.88.72,8.95-6.29,12.5-15.62,14-25.48,3.58-23.17,6-46.52,9.45-69.72,1.87-12.58,5-25,7.21-37.49a35.11,35.11,0,0,0-.11-11.66c-.59-3.54-3.76-5.31-7.16-4.76-2.33.38-5.63,1.74-6.37,3.54a87.28,87.28,0,0,0-4.46,15.91c-2.52,12.43-4.76,24.92-7.09,37.39-2,10.75-6.73,21.08-5,32.42a6.66,6.66,0,0,1-.25,1.47c-.63,5.73-1,11.51-1.93,17.2a171.94,171.94,0,0,1-4.21,20.81c-1.09,3.74-3.92,7-6.73,11.74-8.67-8.92-17.62-17.06-25.21-26.3-5.12-6.23-11.35-12.55-11-22.1-5.37,2.83-5.67-2.12-7.5-4.78-2-3-3.43-6.89-6.21-8.63-5-3.15-6.62-7.5-7.41-12.78-1.55-10.31-3.61-20.56-4.76-30.91-1-8.63-5.19-16.9-2.4-26,1.08-3.51,1-7.53.7-11.27C57.66,335,54.15,323,46.93,312.31c-1.41-2.09-2.6-4.33-3.89-6.5l-.86.43.85,5.21a38.8,38.8,0,0,1-6.27-9.76c-5.59-12.4-19.86-11.5-26.84-2.87A43.59,43.59,0,0,0,.38,332.63C1,338,3.25,343.26,3.4,348.6Zm49.87,85.75c1,5.78,1.73,11.6,2.43,16.5-.49,8.4-.4,15.9-1.62,23.17-.47,2.84-3.7,7-6,7.29-2.85.31-7.36-2.11-8.91-4.69-4.79-8-5.48-17-2.93-26a114.72,114.72,0,0,1,5.45-15.21,6.79,6.79,0,0,1,9.59-3.45A4.06,4.06,0,0,1,53.27,434.35ZM10.93,326a37.55,37.55,0,0,1,7-19.3c1.86-2.72,4.74-3.52,6.48.35,3.65,8.13,7.88,16.13,10.37,24.62,3.38,11.55,5.37,23.5,7.94,35.28a6.46,6.46,0,0,1,.07,1c-.65,7.53-4.5,9.5-10.43,7.23A24.09,24.09,0,0,1,17.59,360C13.83,349,10.25,337.92,10.93,326Z"/><path class="cls-1" d="M219.31,348.79c2.58,8.87,4.54,18,7.87,26.54,1.94,5,6,9.41,12.26,9.52,4.72.07,9.44-.41,15.28-.71-.21,4-.51,8.47-.63,12.92a32.36,32.36,0,0,0,.48,5.36c.23,1.61,1,3.22.87,4.79a84.46,84.46,0,0,0,7.61,39.67c2.84,6.37,9.57,8,15.86,5.06s7.13-9.26,8.26-14.34c3.2-14.41,4.77-29.16,7.53-43.68,2-10.47,4.84-20.78,7.3-31.17.39-1.64.77-3.3,1.42-6.11,1.43,1.9,2.36,2.66,2.65,3.61,1.82,6,3.6,12.05,5.22,18.13,4.4,16.57,6.7,33.82,15.95,48.82.24.41.12,1,.38,1.44,3.8,5.79,7.15,12,11.62,17.2,3.78,4.43,8.85,5.83,15.25,3.88,11.46-3.48,16.3-12.13,18.29-22.42,2.55-13.24,3.86-26.73,5.44-40.15.46-3.92-.48-8,0-11.91,1.52-11.67,3.66-23.26,5.16-34.93,1.45-11.31,2.47-22.68,3.56-34,.39-4.13-2.34-6.74-6.46-6.56-3.57.16-8.06,5.18-8.85,10.43-2.58,17.15-5.14,34.3-7.39,51.49-.63,4.84.17,9.84-.3,14.71-.56,5.73-1.78,11.4-2.75,17.09-1.15,6.81-2.24,13.63-3.59,20.39-.42,2.09-1.58,4-2.69,6.75,2.24,3.09,1,8.91-4.39,14.41-2-2.94-4-5.71-5.88-8.61-8-12.65-11.66-27-16.05-41.09a36.91,36.91,0,0,1-1.43-8.17c-.35-4.71-3.13-8.63-2.52-14.06.52-4.6-3.92-9.73-6.08-14.67-2.74-6.26-7.45-9.71-14.29-9.31a13.77,13.77,0,0,0-12.95,10.07c-2.47,7.68-4.47,15.52-6.48,23.35-2.76,10.76-5.44,21.54-7.94,32.36-1.21,5.21-1.94,10.52-2.88,15.79-1.12-1.67-1.1-3.24-1.37-4.76-.66-3.84-1.8-7.63-2.13-11.49-1-12.21-2.07-24.44-2.51-36.68a103.69,103.69,0,0,1,1.37-19.18c.72-4.72-.52-8.05-5-10.17a4.55,4.55,0,0,1-2.16-2.87c-1.23-5.81-2.14-11.7-3.32-17.53-1.6-7.86-4.89-10.78-12.7-11.48-6.71-.6-11.81,2.12-17.06,6.39-9.63,7.82-12.23,17.93-12,29.38C217.22,344.45,218.66,346.59,219.31,348.79Zm14.22-17.93c1.34-6,2.07-7,8.9-11,.64,2.12,1.28,3.77,1.62,5.48,2.25,11.46,4.36,23,6.69,34.41,1,4.73-1.4,8.34-3.81,11.77-.57.81-4.05.73-5.06-.18a15.15,15.15,0,0,1-4.58-6.87C234.49,353.46,231,342.48,233.53,330.86Z"/><path class="cls-1" d="M586.08,390.81a67,67,0,0,0,5.76,13.73c2.32,4.18,6.19,4.35,13.48,2.45,4.42-1.14,3.36-4.11,3.26-7-.09-2.65-.15-5.32,0-8,.79-14.67,1.54-29.35,2.65-44,.11-1.39,2.5-3.24,4.17-3.74A88.66,88.66,0,0,1,628,341.67c6-.86,7.63-5,8.38-10.16,1.37-9.27-2.31-17.65-4.62-26.25a8,8,0,0,0-3.56-4.64c-8.19-4.13-21.91-6.13-28.84,4.08-2.76,4.07-4.18,9.05-6.45,14.18-.47-1.07-1.25-2-1.17-2.81.87-9.24,1.34-18.55,3-27.65,1.37-7.49,4.24-14.7,6.38-22.05,3.09-10.56,7.25-20.59,14.81-28.81,3.06-3.32,6.7-6.53,11.71-4.81,4.55,1.56,9.59,3,13.07,6.07a64.39,64.39,0,0,1,12.18,14.89c6.52,10.72,13.28,21.48,18.12,33,5.07,12.09,8.36,25,11.78,37.7C686.91,339.6,690.2,355,694,370.26c2.2,8.86,5.66,12.24,11.89,12.34,6,.09,9-3.62,7.23-9.24-1.81-5.85-3.78-11.64-5.57-17.49-3-9.79-6.08-19.55-8.81-29.42-2.9-10.49-4.85-21.28-8.3-31.57-3.2-9.51-7.8-18.55-11.85-27.77-6.25-14.25-14.09-27.59-25.73-38-4.25-3.81-10.2-7.21-15.71-7.84-14.31-1.63-27.83,1.08-37.23,13.69a60.54,60.54,0,0,0-4,6.74c-7.51,13.38-12,28-15.27,42.76a238.18,238.18,0,0,0-5.12,37.22,158.17,158.17,0,0,0,1.34,33.63C578.8,367.3,582.68,379.05,586.08,390.81Zm26.65-82.06c6.58,3.4,11.42,14.7,9.2,20.84-.47,1.29-2.81,3-3.92,2.75-2.71-.57-7.31-2-7.44-3.36C610,322.31,608.67,315.27,612.73,308.75Zm-21.5,25.51c1,1.45,2.88,2.88,2.93,4.36.28,8.64.14,17.28.14,25.92l-.82.07q-1.89-14.83-3.79-29.68Z"/><path class="cls-1" d="M428.23,370.06c.29,7.27-.09,14.7,1.37,21.74,3.37,16.25,7.66,32.23,14.91,47.39,2.69,5.62,6.3,8.38,11.69,9.1,15.59,2.08,31.19,4.62,46.86,5.28,8.62.37,17.84-2.67,23.52-9.87,4.18-5.29,8.08-12,8.9-18.49,1.58-12.53,1.36-25.36,1-38a199.42,199.42,0,0,0-3.08-27.41c-1.95-11.58-5.43-22.7-9.45-33.83-5.17-14.3-10.88-27.86-22-38.52-2.36-2.26-4.75-5.07-7.66-6.08-10.44-3.62-21-7.22-32.36-6.38a81.78,81.78,0,0,1-13.37.09c-5.77-.51-14.3,7.18-14,13.1.12,2.51,1.05,3.6,3.83,3,1.83-.42,3.83-.08,7.09-.08,2.8-3.86,7.53-5.52,13.23-4.91,1.81.19,3.69-.14,5.48.15,10.5,1.73,21.77,2.94,28.47,12.18s13.37,19.28,17.33,30C520.17,356,521.61,385,520.24,414.06c-.33,6.91-3.39,13.77-5.72,20.47-1.47,4.24-5.1,5.79-9.64,5.26-12.52-1.47-25.09-2.61-37.56-4.44a10.26,10.26,0,0,1-6.8-5c-3.61-7.95-6.28-16.31-9.54-24.42-1.68-4.19-1.69-6.89,3.79-7.45a23.27,23.27,0,0,0,7-2.33c13-5.93,16.68-10.74,11.83-23.15a26.54,26.54,0,0,1-2.05-6.62c-1.1-10.46-5.34-19.72-11-28.33-1.15-1.76-4.25-3-6.5-3.12-8.64-.32-14.87,4.83-20.71,10.35a15.82,15.82,0,0,0-5,15.31C428.92,363.65,428.1,366.91,428.23,370.06ZM445,359.94c.28-3.5,2.35-6.85,3.61-10.28l2.26,0c1.84,5,4,9.89,5.44,15,1.31,4.59,1.8,9.4,2.78,14.08,1,5.09-.56,6.62-8,7.87-4.53.75-6.14-1.63-6.22-5.54C444.77,374.05,444.44,367,445,359.94Z"/><path class="cls-1" d="M746.66,268.22c7.28.21,10.69-2.23,10.88-8,.33-10.19,2.68-19.58,9.68-27.47,3.77-4.25,11.29-5.71,13.9-1.68,5.64,8.76,11.8,17.48,15.61,27.07,3.74,9.42,5.26,19.83,7,29.93,1.1,6.52.8,13.28,1.12,19.92-7-4.5-13.83-4.83-20.58-5a13.76,13.76,0,0,0-12.69,9.26c-5,16.19-6.32,32.57-1,48.9,1.7,5.28,3.88,10.92,7.47,14.94,5.66,6.35,13.81,6.63,21.59,4.32C811.32,377,824,366.92,823,351c-.25-4.28,0-8.58,0-12.87-.12-9.86-.1-19.73-.54-29.58a116.07,116.07,0,0,0-2.06-16.17c-2.49-13-4.11-26.35-8.26-38.83-3.23-9.67-10-18.14-14.76-27.33-3.11-6-7.5-10-14.25-9.84a55.41,55.41,0,0,0-16.55,2.75c-6.81,2.38-13.38,5.37-17.46,12.37-5.08,8.69-7,18.12-8.49,27.76C739.94,263.67,743.19,268.12,746.66,268.22Zm52.58,92.6A16.16,16.16,0,0,1,798,362.4c-1.1,1.78-2.16,3.59-3.24,5.38-2.23-2-5.44-3.71-6.47-6.25-2.21-5.47-4.17-11.33-4.61-17.16-.56-7.36.33-14.86,1-22.27.14-1.72,1.78-3.32,2.73-5,1.72,1.15,4.33,1.92,5,3.51,3.29,7.72,6.22,15.61,8.94,23.56.85,2.46.65,5.27.92,7.92l.72.3C801.75,355.22,800.53,358,799.24,360.82Z"/><path class="cls-1" d="M155.15,235.22c0-9.68-.06-19.37,0-29.05,0-5.91-.59-12,.84-17.63.68-2.64,5.24-5.37,8.46-6,4.86-1,8.82,3.08,8.65,7.91-.14,3.78-1.42,7.52-1.59,11.31-.53,12-.67,24.11-1.17,36.15-.38,9.09-1.22,18.16-1.56,27.25a18.49,18.49,0,0,0,1.33,8.06c2.67,5.9.32,10.24-6.24,9.84-6.28-.38-12.52-1.47-18.76-2.34-9.22-1.28-18.48-2.35-27.62-4.08-6.79-1.28-13.51-4-16.93-10.31C98.06,261.62,96.77,256,96,250.7c-1.95-12.86,1.9-24.43,9.74-34.56,9.19-11.89,28.79-11.19,37.06,1.25,3.87,5.82,7.23,12,10.82,18ZM146.57,267c-2.75-9.06-4.73-17.8-8.08-26-2.71-6.64-6.86-12.73-10.77-18.82-1.71-2.67-4.78-3.59-7.06-.55C118,225.2,115,228.88,113.75,233c-1.63,5.17-1.84,10.82-2.42,16.3-.75,7.09,2.64,13.43,9.29,15.09,7.49,1.87,15.31,2.42,23,3.46C144.34,267.94,145.15,267.44,146.57,267Z"/><path class="cls-1" d="M693.59,123.82c.44-3.36,1.3-6.72,1.24-10.07-.22-11.74-.7-23.47-1.17-35.2-.37-9.07,6.84-14.93,15.27-12.12a3.63,3.63,0,0,1,1.71,3c-1.93,20.21,2.45,40.62-2.92,60.85-2.16,8.15-2.59,16.82-7.32,24.05-6.91,10.59-15.68,18.54-29.41,18.94-11.16.32-18.07-6.13-21.77-15.27a74.32,74.32,0,0,1-3.87-45.49c2.5-10.71,17.81-16.86,27.83-12.45,9,3.93,11.17,12.54,16.28,19.15A31.45,31.45,0,0,1,692,124Zm-20,37.19,1-1.64c-.14-.28-.21-.72-.44-.83-2.76-1.34-4.78-3.19-3.89-6.59.84-3.2,2.74-4.9,6.37-5.16,1.38-.1,3.63-2.46,3.69-3.87A27.07,27.07,0,0,0,679,132.27a136.48,136.48,0,0,0-8.7-17.82c-1.13-2-4.22-4.67-5.64-4.27a9.5,9.5,0,0,0-5.58,5.6c-3.06,10.09-.61,20.1,2,29.88.92,3.52,3.18,6.89,5.51,9.78C668.35,157.73,671.22,159.18,673.64,161Z"/><path class="cls-1" d="M661.78,11.81c1.36,10.27,3,20.51,3.93,30.82.27,3-.59,7-2.52,9-1.47,1.53-5.49,1-8.29.67A4.88,4.88,0,0,1,651.69,49c-1.63-12.62-3-25.27-4.38-37.92-.08-.65-.08-1.32-.15-2-.67-6.49,1.3-8.74,7.94-9,5.62-.27,8.47,2.69,8.27,8.61,0,1-.15,2-.23,3Z"/></g></g></svg>